<?xml version="1.0" encoding="UTF-8" ?>
<!DOCTYPE svg PUBLIC "-//W3C//DTD SVG 1.1//EN" "http://www.w3.org/Graphics/SVG/1.1/DTD/svg11.dtd">
<svg width="571pt" height="607pt" viewBox="0 0 571 607" version="1.1" xmlns="http://www.w3.org/2000/svg">
<g id="#000000ff">
<path fill="#000000" opacity="1.00" d=" M 0.00 0.00 L 571.00 0.00 L 571.00 607.00 L 0.00 607.00 L 0.00 0.00 M 116.32 90.34 C 68.99 140.71 41.51 208.15 36.08 276.75 C 31.25 334.85 41.54 394.43 67.19 446.92 C 93.33 500.81 136.25 547.45 190.52 573.66 C 239.21 597.54 296.61 603.04 348.86 588.42 C 408.91 572.03 460.19 530.44 493.53 478.45 C 553.04 386.54 559.57 263.87 512.86 165.21 C 487.96 112.32 447.13 66.14 395.06 38.83 C 356.38 18.29 311.67 9.16 268.05 13.46 C 210.06 18.62 155.69 47.95 116.32 90.34 Z" />
<path fill="#000000" opacity="1.00" d=" M 237.79 107.75 C 252.57 109.41 268.30 102.50 282.33 109.48 C 281.26 110.95 280.32 112.52 279.36 114.07 C 281.32 115.82 282.95 118.01 282.35 120.81 C 286.17 120.23 282.56 116.03 282.92 113.49 C 283.71 113.13 285.29 112.40 286.08 112.03 C 290.25 116.18 295.80 118.60 301.72 118.47 C 300.23 121.22 299.17 124.81 296.01 126.11 C 293.25 127.44 290.60 125.11 287.81 125.33 C 286.29 127.23 284.96 129.28 284.26 131.64 C 281.79 131.44 280.56 129.55 280.24 127.30 C 277.69 130.90 283.51 132.60 283.60 136.01 C 283.09 136.89 282.60 137.78 282.11 138.68 C 287.07 136.49 286.11 129.07 291.88 128.11 C 291.51 131.23 290.66 134.94 287.10 135.67 C 285.12 140.17 293.07 146.44 293.62 139.43 C 292.69 139.73 290.81 140.35 289.88 140.65 C 288.65 138.16 290.67 135.65 291.04 133.19 C 292.12 133.79 293.23 134.39 294.39 134.86 C 294.46 132.86 294.31 130.87 293.78 128.94 C 299.88 127.95 295.33 134.31 296.05 137.64 C 296.85 137.22 298.47 136.39 299.28 135.97 C 299.80 141.28 300.90 147.64 296.90 151.94 C 296.56 152.22 295.89 152.79 295.55 153.08 C 296.80 150.64 294.21 149.07 293.08 147.21 C 292.87 147.73 292.44 148.78 292.23 149.31 C 288.79 149.76 288.80 144.24 292.40 145.19 C 292.63 143.07 289.64 145.27 288.87 145.56 C 288.58 144.60 288.08 143.87 287.36 143.36 C 286.53 146.81 282.34 145.69 283.00 142.15 C 283.75 142.28 285.26 142.55 286.02 142.68 C 285.89 142.09 285.64 140.90 285.52 140.31 C 282.83 139.83 281.96 142.62 281.46 144.64 C 278.96 142.92 279.63 139.37 277.61 137.25 C 275.67 140.71 280.07 148.89 273.26 145.34 C 274.06 144.31 274.78 143.22 275.53 142.16 C 273.41 138.88 268.72 142.22 273.69 143.17 C 273.53 143.84 273.21 145.16 273.05 145.83 C 275.69 148.73 278.73 152.10 277.21 156.34 C 277.76 156.34 278.85 156.35 279.39 156.36 C 280.43 154.83 281.31 152.57 283.70 153.32 C 284.29 155.54 282.98 156.91 281.16 157.84 C 281.42 158.48 281.69 159.13 281.96 159.78 C 283.13 158.61 284.23 157.24 285.95 156.91 C 285.40 160.05 283.76 162.87 283.28 166.03 C 285.86 165.67 287.01 163.29 287.79 161.09 C 289.42 164.95 292.37 168.45 296.06 164.27 C 296.77 164.32 298.18 164.41 298.89 164.46 C 298.79 161.85 298.73 159.24 298.91 156.64 C 299.56 160.81 301.76 161.31 304.28 158.25 C 306.36 160.69 304.14 164.06 305.46 166.91 C 307.81 163.92 310.06 166.49 311.28 168.80 C 312.52 164.34 311.68 159.70 310.35 155.37 C 314.02 157.01 313.24 152.71 314.10 150.53 C 317.11 150.84 317.87 154.51 318.65 156.95 C 324.29 156.83 326.68 151.78 327.55 146.93 C 327.89 147.24 328.55 147.88 328.89 148.19 C 333.49 149.18 339.92 152.00 338.41 157.86 C 339.33 156.62 340.56 155.93 342.15 156.05 C 342.30 158.12 342.37 160.21 342.38 162.29 C 343.58 163.45 345.08 163.55 346.77 163.22 C 343.93 165.13 342.47 170.73 339.27 170.79 L 338.74 170.41 C 335.29 170.74 333.83 175.32 331.82 177.84 C 330.42 177.28 329.04 176.64 327.59 176.23 L 327.53 175.42 C 325.28 175.21 323.40 176.20 322.03 177.92 C 322.43 178.30 323.23 179.06 323.63 179.44 C 323.96 179.40 324.62 179.32 324.95 179.28 C 325.85 178.01 327.07 177.21 328.62 176.88 C 327.75 180.36 328.45 184.71 325.66 187.42 C 324.44 187.48 323.22 187.56 322.01 187.63 C 322.88 186.32 323.85 185.03 323.72 183.36 C 318.17 182.98 312.10 189.37 316.07 194.67 C 312.77 193.23 309.14 193.37 305.63 193.25 L 305.57 192.65 C 302.90 193.04 302.57 190.95 301.68 189.13 C 298.97 187.59 301.36 193.59 298.71 192.29 C 296.17 190.80 289.89 187.33 289.25 191.30 C 293.86 191.87 297.65 196.06 297.47 200.74 C 295.08 199.26 293.23 191.45 291.49 197.05 C 291.59 200.26 288.30 201.25 286.18 199.01 C 290.85 194.66 280.45 196.59 278.65 192.62 C 278.05 189.85 278.77 188.81 280.81 189.50 C 280.73 188.48 280.52 187.50 280.16 186.56 C 278.68 186.60 277.22 186.51 275.78 186.29 C 276.29 189.60 272.99 191.09 270.19 190.85 C 270.19 188.66 270.50 186.47 271.60 184.54 C 270.89 184.46 269.47 184.30 268.75 184.22 C 266.26 182.97 263.93 181.43 261.67 179.82 C 263.57 178.65 263.41 176.59 263.32 174.62 C 266.67 174.47 265.10 178.10 265.55 180.00 C 267.11 179.66 268.65 179.31 270.24 179.06 C 270.05 177.85 267.05 176.57 268.78 175.43 C 269.58 175.72 271.16 176.30 271.96 176.59 C 273.26 170.11 266.72 166.53 261.19 168.60 C 262.17 167.41 263.13 166.21 264.06 164.97 C 263.30 164.70 261.78 164.14 261.03 163.87 C 258.52 162.55 255.90 161.02 254.64 158.34 C 256.99 157.93 258.76 159.59 260.62 160.66 C 258.23 158.06 254.85 154.53 257.84 151.05 C 259.99 151.51 262.07 152.31 264.31 152.23 C 265.43 154.67 264.98 157.48 265.33 160.08 C 270.32 157.01 265.71 145.41 260.68 149.91 C 259.34 151.84 257.22 149.80 255.56 150.96 C 256.29 148.36 254.87 145.71 252.24 145.17 C 251.83 147.49 253.17 149.04 254.96 150.25 C 252.53 152.75 253.23 157.46 248.91 157.82 C 253.37 159.53 255.81 163.85 256.34 168.41 C 254.78 169.10 253.17 169.65 251.50 169.95 C 251.51 168.50 251.53 167.06 251.56 165.61 C 251.03 165.51 249.96 165.31 249.43 165.21 C 250.52 169.06 247.81 170.01 245.69 171.84 C 249.11 173.52 251.60 176.58 252.44 180.32 C 251.68 180.25 250.17 180.11 249.41 180.03 C 249.67 182.01 250.10 183.97 250.35 185.96 C 246.85 181.68 243.03 177.62 238.62 174.22 C 238.78 174.59 239.09 175.33 239.25 175.70 C 239.78 177.32 241.05 178.85 240.44 180.68 C 237.52 180.64 237.28 176.68 234.49 176.31 C 234.18 177.70 234.40 179.08 235.11 180.33 C 234.35 181.21 233.49 182.01 232.64 182.81 C 231.74 183.61 231.15 184.60 230.86 185.78 C 229.14 185.76 227.47 185.45 226.02 184.49 C 226.28 186.28 226.94 187.96 227.69 189.60 C 225.21 190.94 222.33 190.72 219.63 190.43 C 219.39 190.18 218.89 189.70 218.65 189.46 C 218.41 190.12 217.94 191.45 217.71 192.11 C 219.13 193.29 220.65 194.34 222.22 195.33 C 220.82 195.33 219.42 195.37 218.02 195.43 C 217.10 196.12 216.16 196.79 215.22 197.46 C 214.35 196.63 213.49 195.81 212.60 195.02 C 212.53 196.13 212.49 197.25 212.47 198.37 C 215.69 199.01 218.95 198.47 222.19 198.21 C 223.04 197.52 223.91 196.84 224.78 196.17 C 223.00 188.91 234.60 195.63 234.10 200.19 C 231.59 198.47 228.93 196.95 225.75 197.07 C 225.34 197.77 225.01 198.50 224.75 199.27 C 225.68 199.82 226.47 200.54 227.10 201.43 C 225.98 201.47 223.73 201.55 222.60 201.59 C 223.41 202.29 225.03 203.71 225.84 204.42 C 222.05 205.98 220.87 202.02 217.92 201.27 C 216.44 203.76 215.46 206.51 214.21 209.13 C 219.46 208.99 219.41 215.38 222.07 218.51 C 222.78 218.05 223.49 217.59 224.21 217.14 C 224.33 216.78 224.55 216.05 224.67 215.68 C 223.89 215.70 222.33 215.73 221.55 215.75 C 220.30 213.61 222.88 212.31 223.70 210.64 C 222.70 210.54 220.70 210.34 219.71 210.24 C 220.15 209.03 221.04 206.59 221.48 205.37 C 225.20 204.84 224.52 208.72 225.05 210.99 C 225.64 209.99 226.22 208.99 226.80 207.99 C 228.03 207.21 229.65 206.16 228.57 204.39 C 231.28 204.57 234.08 204.39 236.47 205.98 C 231.45 206.64 229.95 211.99 230.30 216.27 C 231.58 216.23 232.87 216.20 234.17 216.19 C 236.78 215.33 240.14 213.58 238.48 210.24 C 241.17 211.71 246.64 214.75 243.34 218.17 C 240.90 220.64 240.45 215.64 238.89 214.73 C 237.20 217.24 239.58 220.45 237.95 223.03 C 236.48 226.05 233.11 227.35 230.26 228.71 C 232.16 232.11 229.49 234.34 227.59 236.85 C 234.87 238.24 235.50 229.46 239.59 226.39 C 242.38 229.62 237.72 232.17 235.50 233.88 C 237.62 235.62 237.21 239.18 234.34 239.78 C 233.86 242.25 233.61 244.71 234.62 247.09 C 232.96 250.61 231.68 254.30 230.12 257.87 C 232.25 257.92 233.43 256.13 234.84 254.86 C 234.48 258.43 235.17 262.05 234.19 265.56 C 237.26 265.85 240.06 264.42 243.09 264.28 C 244.33 270.13 249.43 273.71 252.72 278.34 C 251.45 272.55 256.64 268.49 257.52 263.08 C 262.61 265.85 268.50 262.96 272.33 259.31 C 275.36 263.17 278.26 256.85 281.49 256.08 C 281.50 256.58 281.51 257.58 281.52 258.08 C 280.31 258.66 279.13 259.28 277.95 259.91 C 276.37 260.70 274.76 261.43 273.16 262.18 C 268.32 264.08 263.35 265.58 258.28 266.71 C 259.52 269.37 262.74 270.14 264.07 272.74 C 262.96 272.66 261.85 272.56 260.75 272.45 C 259.80 271.81 258.85 271.19 257.91 270.55 C 252.60 272.34 255.38 277.51 255.84 281.38 C 254.25 281.42 252.67 281.42 251.09 281.38 C 251.18 281.80 251.36 282.63 251.45 283.05 C 252.10 283.44 253.42 284.22 254.07 284.62 C 255.85 283.21 256.99 281.20 258.63 279.66 C 259.18 279.62 260.28 279.55 260.84 279.51 C 260.47 280.66 260.11 281.81 259.74 282.96 C 260.15 284.09 260.57 285.23 260.99 286.37 C 259.08 287.18 257.08 287.61 255.01 287.53 C 256.82 293.92 247.99 299.05 253.81 304.80 C 254.14 309.09 248.25 313.84 253.06 317.34 C 254.04 313.70 257.39 311.85 260.78 310.99 C 260.70 311.64 260.56 312.93 260.48 313.57 C 259.80 313.57 258.44 313.57 257.76 313.57 C 256.91 314.80 254.17 315.48 255.32 317.35 C 256.02 317.39 257.44 317.48 258.15 317.52 C 258.02 319.13 258.13 320.73 258.49 322.31 C 258.79 322.48 259.41 322.82 259.71 322.99 C 255.78 323.32 259.66 327.94 257.44 330.16 C 259.76 333.16 260.89 336.92 264.34 338.96 C 263.52 341.42 260.32 342.05 260.02 344.70 C 261.49 344.10 262.99 343.51 264.62 343.54 C 264.92 345.57 263.79 347.10 262.49 348.47 C 266.12 348.04 269.39 349.73 271.56 352.56 C 272.66 352.34 273.77 352.14 274.85 351.86 C 276.23 351.56 277.64 351.33 278.99 350.88 C 280.05 350.64 281.12 350.41 282.20 350.20 C 285.70 349.03 289.26 348.04 292.76 346.87 C 293.77 346.52 294.78 346.17 295.79 345.80 C 296.59 345.59 297.39 345.39 298.20 345.20 C 299.39 344.73 300.62 344.32 301.83 343.86 C 302.87 343.57 303.89 343.26 304.92 342.93 C 307.22 342.26 309.52 341.57 311.80 340.82 C 315.82 339.74 319.88 338.82 323.92 337.81 C 326.20 337.51 328.52 337.33 330.75 336.72 C 336.93 336.20 343.15 336.16 349.33 336.70 C 350.94 337.25 352.62 337.43 354.31 337.64 C 356.56 338.50 358.95 338.96 361.23 339.74 C 363.02 340.57 364.81 341.44 366.75 341.90 C 374.54 329.65 366.74 315.78 366.30 302.84 C 363.97 305.64 362.87 309.82 359.03 310.99 C 365.79 300.36 363.62 285.77 354.39 277.30 C 357.84 279.36 360.47 282.77 364.43 283.96 C 364.90 282.27 365.59 280.66 366.38 279.10 C 366.09 278.26 365.51 276.57 365.22 275.73 C 372.74 276.33 367.07 270.40 367.67 266.24 C 367.97 266.45 368.58 266.88 368.88 267.09 C 370.71 267.95 372.57 268.94 374.68 268.59 C 373.23 267.11 371.04 265.88 371.64 263.39 C 373.62 263.37 375.16 264.57 376.72 265.61 C 375.46 262.85 374.65 260.33 373.82 257.21 C 375.98 255.07 376.93 252.06 378.88 249.75 C 374.08 246.61 377.99 242.26 379.70 238.36 C 378.16 238.41 376.64 238.47 375.11 238.48 C 373.37 237.15 372.78 235.30 374.33 233.56 C 379.17 226.72 365.25 220.90 370.58 214.92 C 368.37 213.57 365.37 212.46 366.34 209.25 C 364.20 209.32 362.05 209.41 359.91 209.34 C 360.18 206.90 363.48 207.56 364.08 205.25 C 362.98 205.39 361.95 205.73 361.00 206.28 C 360.23 206.30 358.69 206.35 357.93 206.37 C 356.65 205.60 355.35 204.89 354.05 204.18 C 354.19 203.63 354.45 202.54 354.58 202.00 C 352.96 203.00 351.24 204.05 349.25 203.56 C 351.83 200.81 355.05 198.79 357.81 196.24 C 352.63 196.64 349.35 202.24 343.85 201.42 C 342.19 197.97 345.87 190.41 349.64 194.62 C 347.37 195.00 345.25 196.18 345.34 198.89 C 350.81 198.67 354.57 192.60 355.56 188.11 C 354.72 188.50 353.04 189.27 352.20 189.66 L 352.43 187.32 C 351.79 187.31 350.49 187.28 349.85 187.27 C 347.70 185.41 345.05 184.76 342.29 185.50 C 340.70 182.74 346.66 179.31 342.86 178.19 C 341.38 180.72 339.86 183.23 338.04 185.53 C 337.53 185.21 337.03 184.89 336.54 184.58 C 339.03 180.54 342.54 177.32 345.74 173.87 C 345.48 173.40 344.97 172.45 344.71 171.98 C 343.17 173.75 341.65 177.43 338.82 175.80 C 335.37 179.07 335.72 170.03 339.04 172.90 L 340.05 173.28 C 340.17 173.17 340.41 172.97 340.54 172.87 C 343.80 170.78 345.95 167.49 348.04 164.32 C 353.71 165.01 356.40 172.40 361.71 174.81 C 360.79 176.25 360.06 177.83 358.81 179.02 L 359.70 175.42 C 359.04 175.64 357.73 176.09 357.08 176.32 C 355.78 174.44 354.48 172.03 351.78 173.88 C 352.60 172.29 353.23 170.63 353.67 168.90 C 353.00 168.59 351.67 167.96 351.01 167.64 C 349.72 167.58 348.42 167.53 347.14 167.51 C 346.83 168.27 346.20 169.79 345.89 170.55 C 345.41 172.15 347.50 172.16 348.48 172.46 C 349.44 174.06 351.07 174.62 352.92 174.64 C 351.05 175.63 348.28 176.13 348.06 178.66 C 348.59 178.70 349.65 178.77 350.18 178.81 C 350.50 177.13 352.07 176.38 353.23 175.37 C 353.54 176.73 353.50 178.36 354.92 179.11 C 354.10 179.62 353.29 180.12 352.48 180.63 C 351.42 181.81 350.41 183.03 349.39 184.24 C 350.81 184.72 352.24 185.22 353.71 185.56 C 352.88 184.39 352.22 183.12 352.09 181.66 C 354.45 180.88 356.58 181.82 358.57 183.01 C 358.49 182.10 358.34 180.29 358.27 179.39 C 361.33 180.35 364.51 180.38 367.69 180.38 C 363.91 186.66 372.27 186.00 375.51 188.75 C 371.74 195.18 382.40 197.54 385.26 201.98 C 388.43 204.42 382.13 205.40 383.73 207.51 C 384.90 207.08 386.10 206.67 387.33 206.39 C 385.51 210.40 386.90 215.93 391.58 217.03 C 390.87 221.21 395.94 225.16 392.73 229.01 C 394.35 230.71 395.48 232.77 396.33 234.96 C 396.74 243.15 389.00 247.70 385.30 254.02 C 385.95 255.39 387.03 255.90 388.54 255.53 L 388.59 256.26 C 391.08 256.22 393.56 256.22 396.06 256.07 C 388.96 260.58 405.12 270.82 394.59 273.78 C 393.79 277.20 400.26 279.25 399.96 274.43 C 400.72 275.93 402.07 276.92 403.50 277.75 C 400.98 279.28 398.30 281.12 397.27 284.02 C 397.17 286.90 399.54 292.13 395.04 292.61 L 395.57 294.83 C 397.51 294.00 399.54 293.50 401.41 294.82 C 401.49 295.27 401.65 296.19 401.73 296.64 L 400.44 296.53 C 400.74 299.74 398.50 302.11 400.70 305.22 C 397.50 304.70 398.13 308.35 397.06 310.20 C 396.48 314.08 399.07 317.10 400.94 320.23 C 400.19 320.62 398.68 321.42 397.92 321.82 C 396.39 321.65 394.87 321.47 393.35 321.35 C 393.35 321.92 393.35 323.05 393.34 323.62 C 395.45 323.70 397.63 323.71 399.47 324.91 C 399.16 325.43 398.53 326.46 398.22 326.98 C 401.60 327.92 396.88 331.36 395.25 330.58 C 395.11 333.04 394.85 335.57 395.72 337.94 C 394.52 338.86 394.26 340.34 394.03 341.75 C 393.89 341.45 393.60 340.86 393.45 340.56 C 392.37 340.50 391.28 340.45 390.20 340.40 C 390.67 341.28 391.15 342.16 391.64 343.04 C 391.38 343.49 390.87 344.39 390.61 344.84 C 391.24 345.84 391.85 346.86 392.46 347.90 C 391.45 349.41 390.70 351.06 389.84 352.66 C 390.79 357.13 383.24 359.88 388.29 363.92 C 386.32 367.32 387.82 371.36 389.65 374.48 L 388.88 375.06 C 389.69 375.22 391.31 375.54 392.12 375.70 C 391.45 376.07 390.78 376.45 390.13 376.83 L 390.79 378.30 C 390.32 378.39 389.38 378.57 388.91 378.66 C 390.41 381.42 387.79 383.68 387.04 386.20 C 385.79 385.25 384.58 384.28 383.35 383.33 C 383.49 385.12 384.29 386.73 385.00 388.36 C 382.51 388.26 381.52 390.50 381.17 392.59 C 380.68 392.59 379.72 392.60 379.24 392.61 C 378.40 390.83 377.93 388.92 377.46 387.02 C 374.43 386.78 375.64 394.60 371.79 390.43 C 372.04 396.81 363.98 400.66 366.50 407.46 C 365.56 407.24 363.68 406.79 362.74 406.56 C 360.58 407.83 359.35 410.03 358.06 412.08 C 359.44 412.29 360.77 412.70 362.04 413.30 C 363.42 413.45 364.82 413.53 366.22 413.57 C 367.13 412.82 368.05 412.06 368.98 411.32 C 368.56 412.28 368.04 413.18 367.42 414.02 C 370.18 423.88 379.13 430.09 388.07 433.93 C 389.74 434.61 391.42 435.28 393.11 435.94 C 396.06 437.03 399.03 438.03 402.02 439.02 C 403.04 439.34 404.06 439.66 405.09 439.98 C 406.11 440.29 407.14 440.59 408.18 440.88 C 413.20 442.47 418.19 444.12 423.15 445.88 C 430.65 448.95 438.39 452.40 443.79 458.67 C 440.29 456.32 436.36 455.13 432.19 454.83 C 427.52 454.56 422.80 454.63 418.22 453.64 C 418.65 454.79 419.09 455.95 419.54 457.12 C 420.18 457.22 421.44 457.42 422.07 457.51 C 415.69 456.26 412.47 462.88 407.85 465.88 C 404.91 468.23 400.99 467.82 397.57 468.81 C 400.04 470.70 405.66 468.64 403.59 473.61 C 402.06 473.01 400.53 472.42 399.06 471.73 C 398.40 471.73 397.07 471.75 396.40 471.76 C 397.20 469.61 396.40 467.52 395.66 465.50 C 392.85 469.05 390.49 461.68 387.21 464.02 C 383.11 467.94 378.28 473.38 380.35 479.53 C 379.73 479.56 378.49 479.61 377.87 479.64 C 375.92 481.51 376.06 483.87 377.84 485.76 C 376.90 485.57 375.02 485.18 374.08 484.99 C 380.11 493.91 368.43 502.36 360.04 500.89 C 363.66 502.63 367.71 502.54 371.57 503.36 C 373.36 511.03 366.19 515.72 360.52 518.97 C 360.09 513.15 366.75 510.41 368.06 505.35 C 361.04 502.86 353.46 503.59 346.29 501.85 C 351.75 496.58 359.07 494.11 365.98 491.36 C 369.26 474.61 370.79 457.38 370.73 440.37 C 365.11 443.60 368.37 452.19 363.47 454.95 C 362.79 452.59 363.74 450.39 364.51 448.23 C 360.53 449.20 363.08 454.33 362.12 457.19 C 361.58 457.34 360.49 457.64 359.94 457.80 C 363.97 463.45 358.70 469.83 360.58 475.91 C 354.15 478.84 353.85 488.26 346.63 490.05 C 346.57 486.27 346.52 482.47 349.55 479.73 C 347.84 479.12 346.59 480.55 345.16 481.10 C 345.03 479.08 345.31 477.15 346.64 475.58 C 347.46 476.00 348.28 476.42 349.11 476.85 C 350.19 466.25 355.46 456.89 359.97 447.47 L 358.42 447.54 C 358.73 445.95 359.04 444.37 359.37 442.79 C 358.09 441.85 356.74 440.67 357.22 438.90 C 358.59 439.85 359.30 442.43 361.40 441.53 C 358.20 437.98 359.03 433.37 358.40 429.00 C 340.73 462.52 331.76 500.80 308.07 531.02 C 309.77 527.46 311.70 523.97 312.64 520.11 C 309.54 517.30 309.65 512.80 308.82 509.02 C 307.43 499.93 305.78 489.65 298.25 483.45 C 297.03 484.57 295.76 485.64 294.45 486.65 C 294.07 491.93 296.88 496.65 297.36 501.83 C 294.10 502.66 293.93 499.67 293.37 497.36 C 293.15 497.33 292.71 497.28 292.49 497.25 C 290.38 501.95 293.72 506.64 293.65 511.44 C 287.76 513.74 291.54 523.16 292.51 528.07 C 263.58 495.83 236.75 461.72 210.82 427.03 C 207.66 423.15 205.40 418.43 201.35 415.35 C 202.37 417.34 203.89 418.98 205.34 420.67 C 206.83 423.22 208.19 426.15 206.64 429.03 C 204.72 432.31 215.14 434.52 210.07 436.01 C 214.55 443.71 224.10 449.93 222.45 459.95 C 223.65 459.19 225.17 458.72 225.87 457.39 C 227.47 461.98 229.42 466.58 229.50 471.52 C 230.95 469.38 233.53 470.42 235.61 470.50 C 230.75 472.66 234.91 476.94 236.28 479.99 C 235.91 480.74 235.55 481.50 235.19 482.27 C 234.76 482.33 233.90 482.43 233.47 482.49 C 231.90 480.86 231.31 478.63 230.43 476.61 C 227.86 474.27 225.25 476.61 225.45 479.67 C 223.46 476.58 220.66 474.13 217.57 472.20 C 216.40 470.23 216.04 467.95 215.60 465.75 C 209.53 465.44 206.14 458.94 201.80 455.35 C 198.91 452.96 201.97 449.60 199.98 447.01 C 196.64 450.23 197.21 455.28 197.82 459.44 C 200.72 473.88 207.82 487.14 210.22 501.70 C 218.49 501.73 226.77 501.64 235.04 501.74 C 229.53 509.17 221.12 513.46 212.93 517.25 C 216.80 523.95 226.15 522.06 232.28 525.26 C 224.34 528.16 216.48 522.78 208.51 522.42 C 209.66 515.01 217.67 513.23 223.10 509.87 C 218.84 508.64 214.54 507.42 210.10 507.08 C 207.08 499.95 202.79 492.98 196.09 488.79 C 195.11 488.33 194.14 487.86 193.18 487.37 C 194.15 486.74 195.12 486.09 196.09 485.46 C 195.63 484.63 194.72 482.98 194.27 482.15 C 192.14 483.00 190.90 484.99 189.38 486.59 C 188.05 486.58 186.72 486.55 185.40 486.53 C 191.65 481.69 182.05 477.73 180.06 473.16 C 175.09 477.23 179.28 487.85 172.12 489.77 C 172.29 488.04 172.50 486.33 172.79 484.63 C 171.31 484.22 169.84 483.83 168.36 483.44 C 169.13 486.57 171.51 489.46 170.24 492.84 C 169.06 492.32 167.89 491.81 166.73 491.29 C 166.35 491.03 165.60 490.53 165.22 490.28 C 169.35 495.74 171.37 502.78 170.15 509.59 C 168.67 509.56 167.19 509.52 165.71 509.45 C 155.29 506.70 157.35 492.91 163.00 486.50 C 159.95 486.67 157.00 485.93 154.19 484.82 C 150.83 483.30 147.60 481.52 144.22 480.05 C 145.84 477.80 143.87 477.40 142.15 476.89 C 135.03 475.47 126.96 470.36 119.97 473.68 C 117.96 471.61 115.19 471.39 112.45 471.63 C 113.43 470.52 114.44 469.48 115.43 468.40 C 115.06 468.09 114.31 467.48 113.94 467.17 C 110.54 470.46 110.63 475.42 109.97 479.77 C 107.21 472.79 111.60 465.83 117.26 461.98 C 126.87 455.26 138.04 451.29 148.11 445.34 C 152.93 442.73 157.74 440.11 162.46 437.31 C 171.06 431.93 180.25 426.28 185.40 417.23 C 188.14 425.38 191.11 433.47 193.19 441.82 C 193.53 444.16 194.06 446.47 194.70 448.76 C 197.08 445.96 192.98 442.71 194.32 439.60 C 195.14 439.62 196.79 439.67 197.61 439.70 C 198.14 432.57 193.95 425.94 189.30 420.89 C 189.65 418.58 189.84 416.26 189.94 413.93 C 189.01 414.34 188.06 414.72 187.10 415.06 C 188.10 411.79 190.63 409.44 192.87 407.00 C 191.90 406.37 190.94 405.73 189.98 405.10 C 188.70 404.47 187.40 403.86 186.10 403.27 C 187.87 400.91 189.98 392.49 185.23 396.56 C 186.56 393.50 185.30 390.29 184.86 387.21 C 184.34 387.58 183.31 388.33 182.80 388.70 C 181.80 387.26 180.78 385.77 179.23 384.87 C 180.23 383.38 181.53 382.03 181.81 380.20 C 180.78 381.19 179.80 382.25 178.99 383.44 C 178.14 383.50 177.30 383.55 176.45 383.61 C 175.89 382.40 175.59 381.09 175.45 379.77 C 174.31 378.43 173.05 377.19 171.76 376.00 C 172.73 374.20 173.51 372.25 173.10 370.17 C 171.99 370.89 170.94 371.70 169.92 372.54 C 168.51 370.47 163.11 364.69 168.86 365.50 C 164.67 362.81 164.75 356.30 169.33 354.09 L 169.34 353.55 C 171.07 353.63 172.50 352.62 173.99 351.92 C 173.37 351.80 172.14 351.55 171.53 351.43 L 171.52 352.34 C 168.87 352.58 167.35 355.12 165.37 356.57 C 167.43 350.14 161.38 345.00 162.26 338.64 C 161.76 338.30 160.75 337.63 160.25 337.30 C 160.08 334.55 162.65 328.80 158.63 328.12 C 158.55 326.34 159.65 323.90 157.58 322.87 C 157.78 322.36 158.17 321.32 158.37 320.80 C 157.33 319.09 154.58 317.98 155.29 315.61 C 152.49 313.08 156.40 310.32 156.93 307.83 C 158.46 307.96 158.77 306.93 158.74 305.67 C 158.24 305.69 157.23 305.72 156.73 305.74 C 156.62 303.35 157.94 300.79 156.21 298.74 C 160.10 298.12 158.62 293.44 157.62 290.93 C 155.49 284.20 149.99 277.28 153.08 269.99 C 153.88 267.87 153.05 263.57 156.47 264.06 C 156.51 263.68 156.61 262.91 156.66 262.52 C 155.63 261.68 154.61 260.83 153.47 260.17 C 153.98 256.65 149.66 254.56 150.27 250.93 C 151.06 246.62 156.90 244.83 156.37 239.98 C 154.29 237.77 155.14 235.63 158.41 236.24 C 158.19 217.70 166.35 200.27 178.03 186.26 C 180.16 184.56 177.42 182.76 176.28 181.57 C 179.72 181.93 178.30 178.72 178.06 176.87 C 187.62 171.63 180.63 156.76 189.99 151.62 C 200.31 144.28 202.78 130.43 212.56 122.59 C 221.85 121.05 227.14 109.90 237.50 111.50 C 237.60 110.25 237.70 109.00 237.79 107.75 M 287.04 118.64 C 288.21 119.99 289.49 121.29 291.17 121.99 C 291.19 120.78 291.22 119.56 291.25 118.35 C 289.84 118.42 288.44 118.51 287.04 118.64 M 278.30 119.37 C 278.19 120.05 277.98 121.42 277.87 122.11 C 276.87 122.21 276.04 121.83 275.37 120.98 C 275.67 122.98 275.07 125.74 277.81 125.87 C 276.44 123.29 279.84 123.43 280.68 124.88 C 280.68 123.10 280.66 121.32 280.57 119.54 C 280.00 119.50 278.87 119.41 278.30 119.37 M 263.40 146.12 C 265.63 149.41 268.45 152.26 271.76 154.46 C 273.21 154.32 274.49 153.63 275.73 152.93 C 274.22 152.01 272.79 150.96 271.79 149.48 C 268.31 153.30 267.20 145.01 263.40 146.12 M 328.71 153.49 L 328.29 153.16 C 328.35 153.84 328.47 155.19 328.54 155.86 C 324.38 154.30 322.93 160.14 320.28 161.80 C 319.22 159.39 316.72 158.65 314.31 158.50 C 314.61 158.81 315.20 159.44 315.50 159.75 C 315.34 162.31 314.05 164.55 313.25 166.93 C 315.95 166.24 315.39 161.45 318.77 162.24 C 320.82 163.35 320.08 166.05 320.68 167.94 C 325.85 164.52 325.41 154.47 332.65 154.56 C 332.56 153.38 332.48 152.20 332.39 151.02 C 330.99 151.58 329.80 152.49 328.71 153.49 M 332.15 159.12 C 334.71 160.71 336.98 157.47 336.89 155.12 C 334.51 155.04 333.56 157.63 332.15 159.12 M 329.60 158.29 C 328.72 160.55 329.52 162.83 329.90 165.11 C 329.30 165.15 328.09 165.24 327.49 165.28 C 327.34 164.76 327.03 163.72 326.88 163.20 C 325.66 164.90 324.56 166.74 324.45 168.89 C 326.71 169.15 326.34 166.61 327.07 165.26 C 328.21 166.20 327.88 167.77 327.29 168.94 C 329.17 169.71 330.50 171.83 332.75 171.52 C 331.79 169.48 330.55 167.58 329.59 165.53 C 330.23 165.41 331.50 165.15 332.13 165.03 C 334.59 164.21 337.22 163.40 338.76 161.15 C 337.41 161.41 336.08 161.77 334.84 162.36 C 332.53 161.81 331.06 160.01 329.60 158.29 M 272.75 158.59 C 272.28 161.58 274.60 164.27 273.64 167.21 C 275.47 167.79 276.52 169.50 277.85 170.76 C 277.70 169.29 277.53 167.83 277.35 166.36 C 278.15 166.37 279.75 166.37 280.54 166.37 C 280.65 164.26 280.80 162.15 280.78 160.04 C 277.84 159.99 279.11 163.28 278.75 165.12 C 277.10 164.67 277.47 162.99 277.26 161.73 C 275.69 160.77 274.39 159.44 272.75 158.59 M 300.39 165.30 C 300.85 165.29 301.77 165.25 302.24 165.23 C 302.70 163.75 303.92 162.40 303.48 160.76 C 301.29 161.27 301.14 163.62 300.39 165.30 M 244.41 168.85 C 246.86 168.33 247.54 165.32 247.93 163.19 C 245.73 164.23 244.11 166.31 244.41 168.85 M 287.41 172.58 C 286.76 172.23 285.46 171.52 284.81 171.17 C 284.40 170.91 283.58 170.39 283.17 170.14 C 283.31 172.83 285.29 174.77 286.93 176.71 C 287.17 176.40 287.66 175.78 287.90 175.48 C 288.36 175.27 289.28 174.86 289.75 174.66 C 292.08 174.81 294.75 173.87 292.57 171.53 C 288.66 174.76 289.75 168.20 288.95 165.89 C 287.79 167.94 287.66 170.30 287.41 172.58 M 302.04 169.04 C 301.56 172.13 303.99 176.52 307.69 175.10 C 306.64 175.88 303.67 179.97 306.16 180.39 C 307.92 178.49 311.92 173.38 306.47 174.99 C 306.41 173.33 306.36 171.68 306.32 170.03 C 303.68 173.65 304.87 169.12 302.04 169.04 M 296.48 171.12 C 293.89 173.36 296.48 176.30 299.09 176.76 C 299.42 175.09 299.79 173.43 300.10 171.76 C 299.57 172.40 298.49 173.67 297.95 174.31 C 297.47 173.24 296.98 172.17 296.48 171.12 M 244.38 174.55 C 244.01 174.98 243.29 175.84 242.93 176.26 C 243.46 176.40 244.54 176.66 245.08 176.79 C 246.10 177.89 247.14 178.95 248.29 179.94 C 248.63 177.79 247.09 173.69 244.38 174.55 M 289.64 187.51 C 291.24 187.64 292.84 187.70 294.45 187.69 C 295.48 188.27 296.46 188.92 297.39 189.67 C 300.42 186.09 304.56 182.16 303.03 176.96 C 298.81 180.80 292.71 182.45 289.64 187.51 M 349.92 181.12 C 351.16 181.39 352.96 179.50 352.67 178.29 C 351.32 178.04 349.18 179.66 349.92 181.12 M 303.24 189.05 C 303.40 189.77 303.72 191.20 303.87 191.92 L 304.96 191.04 L 306.28 193.09 C 306.48 191.97 306.67 190.84 306.85 189.72 C 305.94 189.55 304.14 189.22 303.24 189.05 M 234.38 221.31 C 230.23 222.46 222.48 218.88 220.97 223.96 C 222.85 223.46 224.64 222.58 226.60 222.40 C 226.78 224.52 226.49 226.63 226.45 228.75 C 227.56 228.31 228.65 227.82 229.76 227.36 C 226.75 222.02 235.16 225.21 235.65 220.55 C 235.33 220.74 234.70 221.12 234.38 221.31 M 216.11 229.01 C 215.19 229.82 212.81 229.83 213.49 231.57 C 214.24 231.43 215.75 231.17 216.50 231.03 C 215.74 232.09 215.00 233.16 214.26 234.23 C 214.75 234.24 215.75 234.27 216.25 234.29 C 217.60 232.63 218.48 230.68 218.42 228.51 C 217.64 228.67 216.87 228.84 216.11 229.01 M 223.76 241.47 C 223.32 243.57 221.19 243.53 219.48 243.66 C 218.62 244.44 218.15 245.47 217.88 246.59 C 218.55 246.61 219.88 246.66 220.54 246.68 L 220.40 245.74 C 221.61 245.91 222.85 246.03 223.94 246.65 C 222.85 248.30 223.91 249.79 224.74 251.09 C 225.23 250.14 225.70 249.18 226.17 248.21 C 223.89 247.12 223.76 244.55 225.52 242.91 C 225.21 241.72 224.62 241.24 223.76 241.47 M 202.53 252.80 C 202.96 254.92 205.80 255.34 205.04 257.97 C 205.16 257.58 205.42 256.80 205.55 256.42 C 207.29 256.32 208.97 255.83 210.58 255.18 C 210.21 252.81 207.92 253.45 206.28 253.25 L 206.33 251.86 C 207.45 251.39 208.00 250.53 207.98 249.27 C 206.12 250.37 204.30 251.54 202.53 252.80 M 224.45 261.50 C 224.47 261.99 224.52 262.96 224.55 263.44 C 226.06 263.44 227.57 263.41 229.08 263.32 C 229.29 262.81 229.70 261.81 229.91 261.31 C 228.09 261.35 226.27 261.41 224.45 261.50 M 215.18 285.28 C 210.95 285.03 214.56 290.33 213.69 292.77 C 218.35 291.58 217.99 287.81 216.21 284.14 C 215.95 284.42 215.44 284.99 215.18 285.28 M 372.51 287.52 C 372.20 288.52 371.87 289.53 371.57 290.54 C 373.16 292.98 376.09 292.87 378.65 292.46 C 377.87 290.84 376.73 289.23 374.69 289.36 C 373.95 288.75 373.23 288.13 372.51 287.52 M 385.56 289.88 C 385.75 290.32 386.14 291.19 386.34 291.62 C 386.88 291.53 387.98 291.35 388.52 291.26 C 388.61 289.89 388.59 288.50 388.47 287.14 C 387.22 287.73 386.37 288.81 385.56 289.88 M 251.35 288.83 C 252.44 291.11 250.39 292.47 249.28 294.17 C 249.83 294.21 250.92 294.29 251.46 294.34 C 253.81 293.44 253.33 290.41 252.33 288.65 C 252.09 288.69 251.60 288.78 251.35 288.83 M 375.06 301.15 C 373.78 301.17 373.70 302.32 373.33 303.17 C 374.40 303.36 375.47 303.56 376.54 303.78 C 375.79 301.98 376.36 300.72 378.26 300.00 C 379.02 301.90 379.96 303.85 382.35 303.53 C 382.72 303.09 383.45 302.22 383.82 301.78 C 383.24 301.68 382.07 301.49 381.49 301.39 C 381.05 300.50 380.61 299.62 380.19 298.74 C 378.25 298.68 375.25 298.45 375.06 301.15 M 226.59 303.50 C 226.57 303.98 226.54 304.93 226.52 305.40 C 228.64 304.32 230.01 306.26 231.37 307.51 C 231.41 306.57 231.44 305.64 231.48 304.71 C 230.08 303.55 228.34 303.35 226.59 303.50 M 248.11 306.61 C 249.73 306.68 251.36 306.70 252.99 306.69 C 253.15 305.09 252.07 303.88 250.71 303.24 C 249.81 304.33 248.95 305.47 248.11 306.61 M 318.23 344.32 C 316.18 344.54 314.10 344.64 312.10 345.21 C 310.02 345.42 307.94 345.60 305.86 345.82 C 304.29 346.32 302.67 346.64 301.07 347.03 C 297.50 349.00 293.05 350.37 291.42 354.49 C 288.41 360.33 291.06 367.06 294.79 371.88 C 295.89 371.24 296.99 370.60 298.10 369.96 C 304.35 368.78 310.97 370.66 317.01 368.35 C 317.25 366.15 317.21 363.95 317.20 361.76 C 319.02 361.12 320.73 360.22 322.41 359.30 C 325.80 356.83 329.72 354.47 334.09 355.55 C 334.93 356.28 335.79 357.00 336.65 357.73 C 336.67 356.09 336.72 354.46 336.78 352.84 C 338.27 354.07 341.88 353.62 341.73 356.18 C 339.42 355.71 339.35 357.33 339.36 358.89 C 340.63 358.56 341.86 358.10 343.06 357.55 C 343.98 358.19 344.92 358.82 345.84 359.48 C 346.47 359.47 347.74 359.47 348.37 359.47 C 348.84 361.10 346.94 364.85 350.42 363.85 C 350.74 362.00 349.99 359.09 352.74 359.09 C 352.34 361.40 350.98 363.41 350.88 365.80 C 352.78 362.47 356.08 363.44 359.11 363.83 C 360.06 359.13 359.64 353.65 363.46 350.11 C 362.54 348.38 362.51 346.45 362.54 344.55 C 359.95 344.55 357.35 344.54 354.76 344.54 C 354.61 345.97 354.43 347.40 354.23 348.83 C 350.41 345.55 345.92 343.23 341.09 341.86 C 339.76 341.53 338.45 341.24 337.16 340.83 C 335.45 340.54 333.72 340.35 332.15 339.63 C 327.40 340.10 323.39 344.14 318.23 344.32 M 239.29 350.57 C 240.28 350.14 241.25 349.69 242.24 349.27 C 243.16 347.67 243.91 345.97 244.54 344.23 C 242.26 345.47 239.38 347.72 239.29 350.57 M 284.12 353.98 C 284.15 354.61 284.20 355.87 284.22 356.50 C 286.92 354.57 291.16 354.09 291.65 350.11 C 288.63 350.15 286.40 352.29 284.12 353.98 M 267.53 361.58 C 267.56 362.08 267.63 363.07 267.66 363.57 C 268.68 364.92 269.98 365.84 271.76 365.44 C 270.97 364.13 270.13 362.85 269.31 361.56 C 268.87 361.57 267.98 361.57 267.53 361.58 M 275.43 375.37 C 275.89 375.45 276.82 375.59 277.28 375.67 C 278.52 373.25 280.70 371.06 280.54 368.17 C 278.65 370.43 276.79 372.74 275.43 375.37 M 297.59 374.31 C 299.22 374.78 300.81 375.41 302.42 375.98 C 302.88 374.74 303.36 373.51 303.84 372.28 C 302.00 373.37 297.24 371.12 297.59 374.31 M 275.27 387.49 C 276.74 387.49 278.21 387.47 279.69 387.44 C 278.78 386.12 277.84 384.82 277.19 383.36 C 276.44 384.68 275.74 386.04 275.27 387.49 M 362.30 391.84 C 362.10 389.41 364.02 385.59 360.99 384.40 C 357.73 385.96 359.28 390.88 362.30 391.84 M 356.40 388.25 C 356.21 391.29 356.10 394.56 357.72 397.28 C 358.23 397.43 359.24 397.73 359.74 397.88 C 358.97 394.56 359.09 390.74 356.40 388.25 M 258.53 398.89 C 260.68 396.48 261.61 393.20 261.32 390.01 C 259.85 392.73 257.83 395.64 258.53 398.89 M 351.60 399.74 C 350.10 404.60 353.06 409.19 352.62 414.06 C 352.08 413.68 350.99 412.91 350.45 412.52 C 349.74 414.35 347.53 414.11 346.52 412.68 C 341.47 415.06 337.06 419.49 331.30 419.86 C 331.25 417.66 331.43 415.48 331.43 413.29 C 330.70 414.12 329.98 414.95 329.28 415.80 C 329.50 417.29 329.73 418.77 329.94 420.27 C 328.66 420.53 327.39 420.84 326.14 421.19 C 323.72 421.33 321.30 421.28 318.89 421.07 C 313.35 419.70 308.05 417.57 302.53 416.14 C 303.22 413.70 304.46 411.40 304.50 408.83 C 303.39 410.17 302.39 411.59 301.27 412.93 C 299.20 409.98 298.01 412.31 297.70 414.67 C 291.64 412.91 288.45 420.33 282.49 419.34 C 282.51 418.91 282.53 418.04 282.55 417.61 L 283.74 417.56 C 281.82 411.58 274.71 418.63 270.13 415.81 C 267.77 415.72 265.41 415.72 263.05 415.76 C 263.88 412.89 267.46 409.07 265.09 406.25 C 263.12 408.61 261.74 412.20 258.02 411.61 C 259.01 413.66 261.60 414.79 261.63 417.31 C 258.64 417.22 254.93 420.71 256.09 415.17 C 255.37 415.44 253.94 415.97 253.22 416.23 C 251.82 416.53 250.43 416.84 249.05 417.22 C 246.32 417.51 243.58 417.52 240.85 417.34 C 239.07 416.69 237.35 415.91 236.22 414.35 L 236.54 415.24 C 234.41 416.05 232.36 417.05 230.29 417.99 C 234.76 421.07 239.64 425.12 245.37 424.59 C 246.37 422.79 245.22 418.79 248.20 419.06 C 248.42 422.35 248.70 425.64 248.96 428.93 C 245.64 428.06 242.39 426.97 239.15 425.85 C 231.85 424.12 224.20 417.98 216.99 422.96 C 216.18 423.27 215.36 423.58 214.54 423.87 C 212.81 421.87 210.97 419.79 208.36 419.00 C 219.24 438.72 235.08 455.46 253.58 468.22 C 254.78 469.10 256.20 469.81 256.88 471.23 C 254.71 471.95 252.51 471.60 250.59 470.46 C 250.29 470.16 249.69 469.57 249.40 469.27 C 255.49 487.42 272.83 498.57 282.20 514.86 L 283.40 514.77 C 287.07 499.44 289.09 481.63 280.99 467.38 C 278.52 469.67 279.07 473.15 278.56 476.16 C 276.90 472.98 276.27 465.18 271.04 467.39 C 273.81 457.15 281.88 449.43 285.14 439.44 C 288.21 438.91 291.32 437.06 294.38 439.27 C 297.84 441.96 301.91 440.38 303.91 436.88 C 311.23 448.51 317.71 460.65 324.69 472.49 C 320.24 472.60 319.77 466.56 317.06 464.01 C 313.36 467.22 311.12 472.11 311.17 477.01 C 310.81 487.76 317.59 496.97 319.01 507.40 L 319.93 507.51 C 328.85 494.98 333.74 480.25 339.98 466.33 C 335.20 466.75 332.10 470.85 328.22 473.17 C 333.21 464.70 340.34 457.76 345.70 449.55 C 351.86 440.66 355.62 430.06 355.73 419.19 C 352.40 423.74 346.61 421.63 341.97 422.73 C 341.49 423.03 340.53 423.63 340.04 423.93 C 340.89 421.09 343.55 419.46 345.78 417.78 C 347.88 416.82 349.96 415.78 351.94 414.59 C 354.07 413.95 356.19 413.26 358.18 412.25 L 355.50 412.55 C 354.04 408.29 352.12 404.23 351.60 399.74 M 356.58 401.37 C 357.27 402.97 357.14 405.18 358.90 406.09 C 358.34 404.39 359.39 400.71 356.58 401.37 M 290.10 446.38 C 287.84 445.92 288.00 448.57 287.68 450.05 C 287.02 460.38 290.53 470.39 290.66 480.68 C 295.73 480.41 300.93 482.24 305.86 480.36 C 304.43 470.25 305.59 459.54 301.56 449.96 C 299.72 445.49 294.17 444.10 290.10 446.38 M 223.42 462.40 C 225.09 464.67 224.08 467.89 226.21 469.96 C 228.10 467.19 226.64 463.77 224.88 461.37 C 224.51 461.63 223.78 462.14 223.42 462.40 Z" />
<path fill="#000000" opacity="1.00" d=" M 299.11 127.67 C 302.74 128.01 304.46 123.67 308.18 124.45 C 309.66 128.74 308.55 133.28 305.86 136.82 C 311.81 136.94 311.17 129.07 315.66 126.96 C 315.95 134.53 313.95 142.59 309.67 148.81 C 308.94 146.57 309.30 144.22 309.49 141.93 C 303.58 141.12 304.70 149.16 307.80 151.66 C 306.23 150.99 304.54 151.16 302.91 151.39 C 302.29 152.30 301.65 153.20 301.00 154.10 C 300.60 154.71 300.21 155.32 299.81 155.93 C 299.99 146.61 305.17 136.09 299.11 127.67 M 302.50 130.02 C 303.34 133.69 307.81 129.64 306.56 127.20 C 305.18 128.11 303.85 129.09 302.50 130.02 Z" />
<path fill="#000000" opacity="1.00" d=" M 318.17 131.67 C 322.69 131.98 319.31 139.27 319.24 142.68 C 317.31 142.00 317.04 139.14 315.25 137.98 C 316.57 136.00 319.41 134.54 318.17 131.67 Z" />
<path fill="#000000" opacity="1.00" d=" M 323.80 136.70 C 324.87 136.36 325.25 137.02 324.94 138.67 C 328.51 143.64 320.53 145.75 319.20 149.77 C 320.84 150.80 322.67 151.44 324.63 151.39 L 324.63 153.42 C 322.92 153.52 321.22 153.55 319.51 153.53 C 316.32 151.16 317.62 146.62 318.67 143.48 C 319.13 143.53 320.06 143.64 320.53 143.69 C 321.12 142.30 322.10 141.94 323.45 142.61 C 323.96 142.15 324.98 141.24 325.49 140.79 C 324.37 140.02 322.38 139.32 322.17 142.08 C 322.76 140.23 322.37 138.70 321.00 137.48 C 321.70 137.28 323.10 136.89 323.80 136.70 Z" />
<path fill="#000000" opacity="1.00" d=" M 278.32 144.87 C 282.24 146.52 286.64 147.82 289.65 150.96 C 289.04 151.49 287.82 152.55 287.20 153.08 C 284.76 149.15 279.95 151.55 276.49 149.41 C 277.13 147.91 277.74 146.39 278.32 144.87 Z" />
<path fill="#000000" opacity="1.00" d=" M 292.00 155.20 C 292.32 155.56 292.94 156.26 293.25 156.62 C 293.70 158.65 294.36 160.64 294.87 162.67 C 291.86 162.71 291.23 157.63 292.00 155.20 Z" />
<path fill="#000000" opacity="1.00" d=" M 307.57 159.93 C 308.00 159.40 308.43 158.88 308.86 158.35 C 309.63 160.08 310.32 161.85 310.87 163.66 C 310.35 163.59 309.29 163.44 308.76 163.36 C 308.36 162.22 307.96 161.07 307.57 159.93 Z" />
<path fill="#000000" opacity="1.00" d=" M 248.15 170.50 C 250.83 170.51 253.21 171.80 255.67 172.67 C 255.00 173.63 254.34 174.59 253.69 175.57 C 252.28 173.45 250.80 171.18 248.15 170.50 Z" />
<path fill="#000000" opacity="1.00" d=" M 331.62 181.59 C 333.08 180.03 334.58 178.21 336.93 178.20 C 335.88 179.38 335.05 181.30 333.00 180.70 C 333.62 182.51 335.09 184.39 333.40 186.10 C 335.62 187.78 334.43 190.54 334.45 192.85 C 335.69 192.09 336.89 191.27 338.04 190.38 C 339.05 190.49 341.06 190.71 342.06 190.82 C 341.08 192.18 340.06 193.51 339.11 194.90 C 341.41 194.87 343.14 193.18 344.02 191.18 C 342.99 190.86 341.97 190.55 340.95 190.23 C 340.74 189.27 340.55 188.31 340.37 187.36 C 340.79 187.48 341.63 187.73 342.05 187.85 C 344.10 189.72 346.19 190.53 348.55 188.16 C 347.35 193.00 339.28 194.96 341.70 200.75 C 337.44 201.86 335.30 197.29 332.09 195.49 C 331.37 195.50 329.95 195.52 329.24 195.53 C 329.96 190.86 329.14 185.85 331.62 181.59 Z" />
<path fill="#000000" opacity="1.00" d=" M 256.59 179.47 C 259.51 182.55 262.54 185.73 263.81 189.89 C 259.67 188.72 258.67 182.21 253.80 183.56 C 253.41 183.88 252.62 184.50 252.23 184.81 C 251.99 181.62 256.85 182.73 256.59 179.47 Z" />
<path fill="#000000" opacity="1.00" d=" M 258.19 178.49 C 259.03 178.49 260.71 178.49 261.55 178.50 C 260.18 181.10 262.37 182.65 264.11 184.12 C 261.36 183.47 259.30 180.98 258.19 178.49 Z" />
<path fill="#000000" opacity="1.00" d=" M 239.19 182.24 C 241.14 181.48 243.20 181.14 245.29 181.13 C 243.89 183.78 239.27 187.40 245.20 184.67 C 245.35 185.03 245.64 185.75 245.78 186.11 C 244.54 186.92 243.36 187.81 242.24 188.78 C 241.62 188.36 240.40 187.54 239.78 187.12 C 239.91 185.46 239.55 183.84 239.19 182.24 Z" />
<path fill="#000000" opacity="1.00" d=" M 236.23 188.42 C 238.30 189.79 240.55 190.91 243.11 190.38 C 244.28 189.68 245.46 188.99 246.63 188.29 C 246.35 189.82 246.57 191.36 246.78 192.89 C 248.90 194.28 250.91 195.82 252.94 197.34 L 252.10 198.03 C 253.33 198.20 254.56 198.40 255.78 198.63 C 254.30 196.67 252.83 194.71 251.03 193.03 C 255.94 191.37 261.69 202.63 253.85 199.15 C 254.02 200.15 254.36 202.15 254.53 203.14 C 253.52 203.15 252.51 203.17 251.51 203.20 C 251.42 202.15 251.35 201.10 251.27 200.05 C 248.31 197.43 244.32 194.45 246.13 189.94 C 244.62 191.31 243.94 193.01 244.09 195.05 C 241.94 192.26 236.95 192.64 236.23 188.42 Z" />
<path fill="#000000" opacity="1.00" d=" M 252.38 189.13 C 254.69 188.22 257.21 189.02 259.61 188.67 C 259.13 190.01 258.64 191.34 258.17 192.68 C 257.95 192.37 257.52 191.73 257.30 191.41 C 255.61 191.30 253.93 191.24 252.24 191.22 C 252.28 190.70 252.35 189.65 252.38 189.13 Z" />
<path fill="#000000" opacity="1.00" d=" M 319.36 194.84 C 321.14 193.20 322.38 190.43 324.99 190.13 C 323.64 192.31 321.79 194.15 320.70 196.49 C 320.25 195.93 319.80 195.39 319.36 194.84 Z" />
<path fill="#000000" opacity="1.00" d=" M 260.01 191.15 C 262.84 190.80 264.91 193.15 265.24 195.79 C 265.66 195.69 266.50 195.51 266.92 195.42 L 266.88 197.31 C 264.93 197.28 262.97 197.30 261.02 197.36 C 261.11 196.91 261.29 195.99 261.39 195.53 C 262.07 195.59 263.44 195.71 264.13 195.77 C 263.85 193.15 260.15 193.77 260.01 191.15 Z" />
<path fill="#000000" opacity="1.00" d=" M 235.32 194.39 C 237.12 193.94 238.41 195.36 239.83 196.19 C 241.73 196.54 243.62 196.98 245.49 197.50 C 244.46 200.45 239.59 205.52 245.06 206.55 C 246.74 206.61 248.24 205.87 249.77 205.29 C 248.46 207.31 247.11 209.49 245.02 210.77 C 242.45 210.70 240.29 208.67 237.63 209.36 C 238.40 206.48 237.63 202.68 240.31 200.69 C 240.82 197.76 236.67 196.77 235.32 194.39 Z" />
<path fill="#000000" opacity="1.00" d=" M 269.35 195.78 C 271.14 197.23 272.35 199.46 272.66 201.74 C 272.30 201.41 271.58 200.75 271.22 200.43 C 268.20 201.45 268.91 197.48 269.35 195.78 Z" />
<path fill="#000000" opacity="1.00" d=" M 308.09 198.13 C 308.94 197.48 309.82 197.37 310.74 197.80 C 310.75 199.42 310.50 201.01 309.98 202.56 C 306.58 203.57 303.61 201.53 301.01 199.62 C 303.50 199.92 305.88 199.23 308.09 198.13 Z" />
<path fill="#000000" opacity="1.00" d=" M 313.17 196.57 C 316.10 194.44 315.91 198.68 316.97 200.23 C 317.65 199.96 319.00 199.42 319.68 199.15 C 319.20 201.92 315.97 202.31 313.74 202.71 C 313.99 200.67 315.73 198.02 313.17 196.57 Z" />
<path fill="#000000" opacity="1.00" d=" M 327.85 197.45 C 328.12 197.61 328.65 197.93 328.92 198.09 C 329.78 199.14 330.10 200.85 328.63 201.51 C 328.08 201.49 326.97 201.45 326.42 201.43 C 326.95 200.13 327.42 198.80 327.85 197.45 Z" />
<path fill="#000000" opacity="1.00" d=" M 231.27 213.24 C 232.29 211.88 233.37 210.57 234.44 209.24 C 235.08 210.52 235.62 211.85 236.07 213.21 C 234.87 213.22 232.47 213.23 231.27 213.24 Z" />
<path fill="#000000" opacity="1.00" d=" M 263.42 218.49 C 269.18 218.40 275.01 218.27 280.70 219.28 C 282.74 219.45 284.81 219.63 286.80 220.16 C 288.47 220.42 290.16 220.66 291.80 221.10 C 296.63 222.31 301.43 223.86 305.76 226.37 C 306.15 226.04 306.92 225.39 307.31 225.06 C 308.25 222.93 308.74 220.65 309.12 218.36 C 310.23 220.58 312.45 221.65 314.73 222.31 C 318.43 222.20 323.12 221.92 324.98 225.93 C 326.72 225.31 328.45 224.64 330.18 223.97 C 337.70 222.28 345.47 223.52 353.02 222.17 C 354.13 221.71 355.26 221.30 356.40 220.93 C 356.79 222.46 357.15 223.99 357.55 225.53 C 358.22 225.33 359.56 224.94 360.23 224.74 C 369.90 235.15 369.72 251.42 365.77 264.48 C 365.64 268.10 361.31 267.79 358.86 268.82 C 359.70 269.91 360.58 271.01 361.46 272.09 C 360.94 273.00 360.43 273.93 359.91 274.85 C 357.58 272.29 358.34 266.64 354.04 266.50 C 354.12 266.12 354.27 265.36 354.35 264.98 C 357.12 268.18 359.80 265.19 361.83 262.88 C 357.54 260.40 361.02 256.26 361.05 252.62 C 359.84 253.67 359.34 256.00 357.39 255.71 C 358.10 253.75 358.97 251.86 359.84 249.98 C 361.67 250.53 363.03 252.20 365.11 251.92 C 363.95 250.38 362.55 248.96 361.95 247.09 C 360.83 247.75 359.64 248.28 358.41 248.68 C 358.06 245.99 360.32 244.65 362.09 243.18 C 362.25 242.74 362.56 241.86 362.72 241.42 C 361.57 242.10 360.37 242.69 359.16 243.25 C 357.06 244.04 355.04 245.00 352.94 245.77 C 352.61 243.47 353.11 240.26 350.52 239.15 C 350.89 241.62 349.25 243.18 347.26 244.25 C 346.21 244.54 345.19 244.88 344.18 245.28 C 341.71 245.67 339.18 245.95 336.73 245.34 C 338.24 241.96 342.58 240.86 343.40 237.06 C 344.04 234.77 338.23 232.74 339.33 233.91 C 338.05 236.59 338.22 243.25 332.61 241.83 C 331.57 239.22 331.81 236.54 332.60 233.91 C 331.18 234.36 330.47 235.68 329.66 236.81 C 329.95 238.51 330.58 240.11 331.18 241.73 C 328.14 241.89 324.33 239.07 321.63 240.98 C 321.42 244.42 319.14 241.56 317.88 241.07 C 314.37 239.58 310.56 239.25 306.79 239.59 C 304.52 240.28 302.19 240.81 300.06 241.90 C 301.28 242.73 302.52 243.55 303.78 244.35 C 305.87 244.38 307.97 244.40 310.06 244.23 C 312.41 243.33 314.97 243.71 317.44 243.63 L 317.51 244.60 C 317.83 244.60 318.48 244.60 318.81 244.59 C 317.63 245.18 316.45 245.74 315.29 246.35 C 308.18 247.82 301.34 245.16 295.36 241.55 C 295.22 243.80 297.87 244.54 298.37 246.57 C 296.88 246.66 295.39 246.76 293.91 246.85 C 291.64 247.68 289.34 248.63 286.86 248.45 C 288.25 245.27 292.92 244.19 292.51 240.17 C 288.46 240.61 285.10 243.58 280.91 243.46 C 282.85 241.00 283.95 236.99 280.73 235.09 C 279.44 238.51 279.07 243.15 275.01 244.53 C 271.08 243.36 274.17 237.82 272.17 235.17 C 271.29 237.07 269.07 238.68 269.61 241.02 C 270.60 242.38 272.89 243.73 270.03 244.71 C 267.69 243.35 265.60 241.61 263.23 240.31 C 263.99 238.75 265.40 237.72 266.79 236.78 C 268.32 236.25 269.98 235.43 269.96 233.53 C 267.61 234.54 265.26 235.63 263.28 237.27 C 263.09 239.71 263.12 242.21 264.24 244.46 C 260.89 244.93 261.68 238.28 257.40 240.66 C 258.29 242.40 259.57 243.88 260.98 245.22 C 260.81 245.85 260.47 247.12 260.30 247.76 C 258.55 246.54 257.38 244.75 256.15 243.06 C 255.21 243.65 254.28 244.25 253.34 244.84 C 253.11 248.59 254.51 252.72 259.19 253.30 C 255.31 255.10 253.64 251.25 251.30 249.32 C 251.39 249.78 251.56 250.71 251.65 251.17 C 252.19 252.19 253.51 252.96 253.56 254.18 C 255.83 254.83 259.50 253.52 260.45 256.40 C 257.27 256.47 254.09 256.45 250.91 256.29 C 248.67 252.30 245.64 247.44 248.99 243.15 C 248.04 243.45 247.11 243.78 246.18 244.13 C 244.19 244.50 241.73 246.79 239.97 244.53 C 235.54 250.05 239.94 258.13 243.97 262.79 C 236.21 260.96 232.94 250.48 237.87 244.35 C 238.28 244.37 239.11 244.40 239.52 244.42 C 237.34 237.89 246.52 237.31 250.22 234.22 C 254.08 231.57 256.85 227.64 258.71 223.39 C 259.01 223.73 259.62 224.42 259.92 224.76 C 261.77 224.48 263.54 223.86 265.32 223.29 C 264.65 221.70 264.01 220.10 263.42 218.49 M 309.70 226.59 C 307.38 227.60 305.31 229.16 304.05 231.39 C 309.08 231.80 314.13 230.81 319.15 231.57 C 319.56 231.88 320.38 232.51 320.78 232.83 C 320.64 227.43 314.15 225.54 309.70 226.59 M 327.69 231.68 C 327.60 232.22 327.44 233.31 327.36 233.85 C 329.27 233.19 331.38 232.74 332.99 231.43 C 331.21 231.19 329.44 231.37 327.69 231.68 M 346.69 232.58 C 346.66 233.22 346.58 234.49 346.54 235.13 C 347.59 236.71 349.01 237.94 351.06 237.69 C 350.71 237.23 350.00 236.29 349.64 235.83 C 349.56 234.67 349.49 233.53 349.42 232.38 C 348.51 232.44 347.60 232.50 346.69 232.58 M 274.50 233.33 C 273.84 234.24 273.66 235.20 273.95 236.23 C 275.23 235.42 275.93 234.34 276.06 232.99 C 275.67 233.08 274.89 233.25 274.50 233.33 M 304.21 235.33 L 304.18 237.20 C 307.40 237.34 310.64 237.45 313.79 238.21 C 317.38 237.94 323.41 240.38 324.61 235.50 C 322.16 235.80 319.61 236.74 317.21 235.72 C 312.90 235.20 308.55 235.10 304.21 235.33 Z" />
<path fill="#000000" opacity="1.00" d=" M 280.42 246.70 C 281.41 244.56 284.81 245.40 286.81 244.52 C 286.61 245.87 285.79 246.92 284.86 247.88 C 284.37 248.12 283.40 248.62 282.91 248.86 C 281.68 249.44 280.31 249.53 278.98 249.58 C 279.86 248.94 280.74 248.31 281.63 247.68 C 281.33 247.44 280.72 246.95 280.42 246.70 Z" />
<path fill="#000000" opacity="1.00" d=" M 322.11 244.21 C 325.56 245.41 328.68 247.37 331.86 249.12 C 332.11 249.44 332.59 250.07 332.83 250.38 C 328.58 250.32 324.23 247.94 322.11 244.21 Z" />
<path fill="#000000" opacity="1.00" d=" M 239.19 252.81 C 238.98 249.17 242.79 247.38 245.86 247.14 C 245.04 250.19 242.96 253.80 239.19 252.81 Z" />
<path fill="#000000" opacity="1.00" d=" M 264.04 247.00 C 265.37 247.30 266.70 247.66 267.93 248.28 C 269.20 248.45 270.48 248.62 271.77 248.79 C 269.56 250.94 264.40 250.38 264.04 247.00 Z" />
<path fill="#000000" opacity="1.00" d=" M 289.73 252.81 C 292.40 251.01 295.14 249.30 297.88 247.61 C 300.37 246.90 301.74 247.52 301.99 249.47 C 296.50 248.47 293.29 253.52 289.28 256.03 C 289.99 256.72 290.70 257.43 291.42 258.13 C 288.28 263.79 283.45 269.00 277.59 271.80 L 277.40 272.50 C 276.87 272.42 275.82 272.26 275.29 272.17 C 281.24 269.02 285.27 263.59 289.85 258.85 C 288.95 258.19 288.06 257.52 287.15 256.90 C 288.29 255.71 289.74 254.65 289.73 252.81 Z" />
<path fill="#000000" opacity="1.00" d=" M 316.41 248.11 C 316.89 248.19 317.85 248.34 318.33 248.42 C 319.20 250.14 320.76 251.66 320.62 253.74 C 320.26 253.47 319.55 252.94 319.19 252.67 C 317.54 252.50 315.89 252.35 314.25 252.28 L 314.34 250.79 C 315.86 250.64 316.55 249.75 316.41 248.11 Z" />
<path fill="#000000" opacity="1.00" d=" M 336.31 248.50 C 338.58 248.28 340.88 248.31 343.15 248.62 C 340.83 249.51 338.85 250.93 337.23 252.82 C 337.27 252.11 337.36 250.70 337.40 249.99 C 337.13 249.62 336.58 248.87 336.31 248.50 Z" />
<path fill="#000000" opacity="1.00" d=" M 349.16 250.78 C 349.54 250.38 350.30 249.58 350.68 249.17 C 350.50 252.49 347.06 255.06 344.40 252.10 C 344.41 251.73 344.44 250.99 344.45 250.62 C 346.01 250.68 347.58 250.75 349.16 250.78 Z" />
<path fill="#000000" opacity="1.00" d=" M 323.11 250.48 C 324.41 250.48 325.74 250.57 326.99 251.02 C 328.96 252.02 330.95 252.99 332.88 254.07 C 334.40 255.43 335.87 256.86 337.11 258.50 C 335.59 258.50 334.17 258.13 332.85 257.39 C 332.34 257.09 331.32 256.49 330.82 256.19 C 328.17 254.39 325.48 252.62 323.11 250.48 Z" />
<path fill="#000000" opacity="1.00" d=" M 352.50 250.39 C 352.81 250.62 353.42 251.07 353.73 251.30 C 356.12 250.74 355.64 253.12 356.00 254.63 C 353.83 253.84 350.89 253.47 352.50 250.39 Z" />
<path fill="#000000" opacity="1.00" d=" M 264.26 252.18 C 266.29 252.22 268.32 252.32 270.35 252.44 C 270.45 254.95 265.99 252.97 264.26 253.54 C 264.26 253.20 264.26 252.52 264.26 252.18 Z" />
<path fill="#000000" opacity="1.00" d=" M 268.03 257.69 C 270.20 254.87 273.58 252.88 277.08 252.30 C 275.49 254.87 272.69 256.13 269.91 256.98 C 269.44 257.16 268.50 257.51 268.03 257.69 Z" />
<path fill="#000000" opacity="1.00" d=" M 293.92 257.92 C 295.51 256.50 296.97 254.94 298.43 253.39 C 298.51 254.01 298.65 255.25 298.72 255.87 C 297.45 256.92 296.22 258.02 295.12 259.24 C 294.74 259.40 293.98 259.72 293.60 259.88 C 293.68 259.39 293.84 258.41 293.92 257.92 Z" />
<path fill="#000000" opacity="1.00" d=" M 304.06 258.64 C 303.78 255.17 308.50 255.66 310.78 256.15 C 312.22 256.32 313.67 256.52 315.11 256.74 C 313.79 257.22 312.44 257.62 311.14 258.10 C 308.78 258.36 306.42 258.49 304.06 258.64 Z" />
<path fill="#000000" opacity="1.00" d=" M 248.03 256.11 C 252.32 259.02 257.12 258.49 262.17 258.40 C 260.61 260.20 257.95 260.23 255.81 260.77 C 255.10 261.03 254.39 261.28 253.67 261.52 C 252.06 259.40 248.55 258.96 248.03 256.11 Z" />
<path fill="#000000" opacity="1.00" d=" M 350.43 258.62 C 351.09 258.57 352.41 258.48 353.07 258.44 C 354.79 260.12 357.99 261.02 358.00 263.81 C 357.50 263.70 356.51 263.47 356.02 263.36 C 354.80 261.66 353.20 260.36 351.31 259.50 L 350.40 259.57 C 350.41 259.33 350.42 258.86 350.43 258.62 Z" />
<path fill="#000000" opacity="1.00" d=" M 294.14 265.79 C 293.92 263.48 295.40 260.56 297.82 260.11 C 297.97 262.66 295.60 264.07 294.14 265.79 Z" />
<path fill="#000000" opacity="1.00" d=" M 247.23 261.25 C 250.54 260.84 250.52 265.75 253.84 265.85 C 253.09 267.08 253.78 270.31 251.62 269.72 C 251.01 267.70 250.10 265.78 248.99 263.99 C 247.45 263.75 247.23 262.54 247.23 261.25 Z" />
<path fill="#000000" opacity="1.00" d=" M 323.71 264.64 C 326.27 262.79 329.23 264.36 331.87 265.15 C 334.11 266.08 336.29 267.18 338.26 268.62 C 338.68 268.26 339.52 267.54 339.94 267.18 C 339.35 268.20 338.75 269.21 338.18 270.24 C 337.88 270.15 337.28 269.97 336.99 269.88 C 335.90 269.66 334.83 269.45 333.76 269.24 C 332.77 268.86 331.78 268.51 330.79 268.19 C 329.56 267.66 328.34 267.17 327.14 266.61 C 325.91 266.48 324.69 266.36 323.47 266.28 C 323.53 265.87 323.65 265.05 323.71 264.64 Z" />
<path fill="#000000" opacity="1.00" d=" M 287.32 275.74 C 289.93 271.78 293.06 267.84 297.67 266.15 C 294.51 269.62 291.35 273.25 287.32 275.74 Z" />
<path fill="#000000" opacity="1.00" d=" M 349.94 266.62 C 353.39 267.76 356.44 270.68 357.06 274.34 C 354.13 272.13 350.70 270.62 348.06 268.02 C 348.53 267.67 349.47 266.97 349.94 266.62 Z" />
<path fill="#000000" opacity="1.00" d=" M 318.15 268.05 C 318.49 267.89 319.15 267.56 319.48 267.40 C 320.15 270.05 320.10 274.24 316.14 273.77 C 316.44 271.71 315.71 268.99 318.15 268.05 Z" />
<path fill="#000000" opacity="1.00" d=" M 342.29 267.43 C 342.77 267.51 343.74 267.65 344.23 267.72 C 344.84 268.01 346.06 268.57 346.67 268.85 C 346.66 269.34 346.65 270.31 346.64 270.79 C 345.25 270.18 343.87 269.54 342.42 269.11 C 342.39 268.69 342.32 267.85 342.29 267.43 Z" />
<path fill="#000000" opacity="1.00" d=" M 282.70 273.95 C 285.20 272.21 286.89 269.24 289.76 268.15 C 288.92 271.77 285.13 273.41 282.69 275.84 C 282.69 275.37 282.69 274.43 282.70 273.95 Z" />
<path fill="#000000" opacity="1.00" d=" M 289.95 278.61 C 291.93 274.15 296.75 270.64 300.06 267.71 C 299.87 268.40 299.47 269.78 299.27 270.47 C 299.88 270.54 301.11 270.67 301.72 270.74 C 300.20 272.35 297.66 273.22 297.01 275.46 C 301.15 274.66 299.14 277.25 296.92 277.93 C 296.47 278.13 295.56 278.53 295.11 278.73 C 295.66 277.63 296.76 275.43 297.31 274.33 C 295.00 276.01 292.46 277.28 289.95 278.61 Z" />
<path fill="#000000" opacity="1.00" d=" M 268.24 270.58 C 269.75 269.90 271.32 269.37 272.96 269.14 C 272.64 270.89 271.34 271.73 269.60 271.80 C 269.35 271.97 268.85 272.32 268.61 272.49 C 268.52 272.01 268.33 271.06 268.24 270.58 Z" />
<path fill="#000000" opacity="1.00" d=" M 310.81 271.23 C 312.75 272.32 314.76 273.29 316.83 274.13 C 319.34 275.01 321.58 276.72 320.76 279.71 C 320.40 279.46 319.68 278.97 319.32 278.72 C 315.84 277.09 312.68 274.65 310.81 271.23 Z" />
<path fill="#000000" opacity="1.00" d=" M 266.69 273.95 C 267.52 274.81 268.34 275.68 269.14 276.58 C 269.51 276.64 270.25 276.77 270.62 276.83 C 270.57 277.15 270.47 277.80 270.42 278.12 C 269.37 278.75 268.59 279.63 268.08 280.76 C 270.55 280.80 273.21 280.61 274.68 278.37 C 275.93 283.87 269.85 288.03 271.53 293.66 C 267.60 292.55 271.23 285.45 269.25 282.19 C 268.08 282.99 267.55 284.29 267.27 285.64 L 266.89 285.62 C 266.62 286.21 266.09 287.39 265.83 287.97 C 266.15 289.60 266.35 291.24 266.54 292.89 C 264.71 291.19 262.85 287.23 260.06 289.53 C 259.40 290.35 258.71 291.15 258.00 291.93 C 258.99 286.66 270.07 285.68 265.61 280.00 C 266.73 278.17 266.58 276.01 266.69 273.95 Z" />
<path fill="#000000" opacity="1.00" d=" M 278.67 278.14 C 281.94 284.58 274.52 290.36 274.95 297.05 C 272.48 290.49 276.82 284.25 278.67 278.14 Z" />
<path fill="#000000" opacity="1.00" d=" M 282.30 286.20 C 282.91 283.82 283.72 281.12 285.86 279.67 C 285.96 281.09 285.48 282.21 284.41 283.02 C 284.94 285.14 286.82 285.99 288.66 286.71 C 286.12 292.65 280.68 297.28 279.55 303.78 C 282.64 303.38 282.31 297.13 285.77 300.09 C 286.27 302.85 284.15 304.58 282.23 306.09 C 282.71 306.22 283.68 306.48 284.16 306.61 C 287.88 309.47 290.64 313.49 294.80 315.78 C 294.98 319.21 289.63 316.67 287.32 317.30 C 287.07 321.14 287.91 325.11 286.84 328.87 C 283.97 324.52 287.72 314.97 280.16 315.22 C 280.70 315.04 281.24 314.87 281.78 314.70 C 279.57 314.79 277.35 314.62 275.39 313.51 C 274.13 303.43 281.40 295.85 285.82 287.69 C 284.64 287.21 283.46 286.71 282.30 286.20 Z" />
<path fill="#000000" opacity="1.00" d=" M 335.72 286.71 C 339.15 286.26 342.61 286.16 346.06 286.32 C 351.22 291.04 346.95 297.44 340.90 297.98 C 339.54 298.30 338.15 298.51 336.78 298.78 C 334.86 299.34 332.86 299.50 330.89 299.74 C 327.97 301.99 326.51 295.95 325.34 293.93 C 326.93 289.94 331.85 288.10 335.72 286.71 Z" />
<path fill="#000000" opacity="1.00" d=" M 300.63 288.40 C 304.82 286.28 309.75 290.90 314.13 291.92 C 322.76 291.12 320.66 300.89 317.27 305.46 C 316.79 305.43 315.83 305.38 315.35 305.36 C 315.78 304.02 316.43 302.78 317.12 301.57 C 315.46 301.40 313.83 301.25 312.23 300.82 C 306.15 300.04 297.55 296.01 300.63 288.40 Z" />
<path fill="#000000" opacity="1.00" d=" M 328.78 344.87 C 330.15 344.47 331.45 343.89 332.78 343.37 C 331.91 345.20 330.78 346.87 329.75 348.60 C 329.37 347.36 328.57 346.49 327.47 345.87 C 327.80 345.62 328.45 345.12 328.78 344.87 Z" />
<path fill="#000000" opacity="1.00" d=" M 332.45 427.86 C 331.60 424.59 335.20 422.78 337.32 421.03 C 337.70 422.88 336.86 425.86 339.73 425.60 C 339.58 427.38 336.44 426.92 335.37 428.00 C 335.45 427.26 335.62 425.79 335.71 425.06 C 334.63 426.00 333.57 426.97 332.45 427.86 Z" />
<path fill="#000000" opacity="1.00" d=" M 262.07 422.13 C 265.39 424.81 264.48 429.84 267.89 432.64 C 264.70 430.21 260.21 426.69 262.07 422.13 Z" />
<path fill="#000000" opacity="1.00" d=" M 249.97 425.17 C 250.97 425.45 251.97 425.77 252.95 426.13 C 253.43 426.47 254.39 427.17 254.87 427.51 C 256.25 427.58 257.64 427.65 259.03 427.70 C 258.07 428.96 257.09 430.22 256.23 431.55 C 253.48 430.14 250.52 428.53 249.97 425.17 Z" />
<path fill="#000000" opacity="1.00" d=" M 280.37 429.95 C 282.80 431.75 283.78 434.68 285.46 437.08 C 284.37 438.84 282.03 438.13 280.34 438.35 C 281.06 435.56 281.05 432.73 280.37 429.95 Z" />
<path fill="#000000" opacity="1.00" d=" M 317.27 432.18 C 318.02 431.92 318.77 431.67 319.54 431.45 C 318.59 433.12 317.63 434.79 316.73 436.48 C 314.48 435.56 312.42 436.58 310.50 437.75 C 310.41 437.22 310.23 436.16 310.14 435.63 C 312.87 435.32 315.17 433.83 317.27 432.18 Z" />
<path fill="#000000" opacity="1.00" d=" M 405.97 485.82 C 408.36 484.89 409.63 486.85 411.45 487.93 C 415.36 492.20 411.28 500.45 405.28 499.63 C 404.84 495.03 404.13 490.23 405.97 485.82 Z" />
<path fill="#000000" opacity="1.00" d=" M 256.70 500.04 C 258.78 503.16 263.07 504.57 263.64 508.66 C 261.07 508.88 258.96 507.39 256.70 506.47 C 256.76 504.32 256.74 502.18 256.70 500.04 Z" />
<path fill="#000000" opacity="1.00" d=" M 261.66 512.25 C 265.32 512.15 269.53 514.36 268.90 518.62 C 266.24 516.37 261.01 517.02 261.66 512.25 Z" />
</g>
<g id="#ffffffff">
<path fill="#ffffff" opacity="1.00" d=" M 349.92 181.12 C 349.18 179.66 351.32 178.04 352.67 178.29 C 352.96 179.50 351.16 181.39 349.92 181.12 Z" />
</g>
</svg>
