<?xml version="1.0" encoding="UTF-8" ?>
<!DOCTYPE svg PUBLIC "-//W3C//DTD SVG 1.1//EN" "http://www.w3.org/Graphics/SVG/1.1/DTD/svg11.dtd">
<svg width="1400pt" height="800pt" viewBox="0 350 1400 1050" version="1.1" xmlns="http://www.w3.org/2000/svg">
<g id="#000000ff">
<path fill="#000000" opacity="1.00" d=" M 1192.77 373.00 C 1193.94 366.89 1200.50 363.36 1206.30 365.48 C 1260.04 366.38 1311.73 396.40 1340.49 441.54 C 1358.00 467.49 1366.55 498.94 1367.33 530.06 C 1367.99 537.75 1357.04 542.60 1352.45 535.55 C 1350.89 530.40 1352.39 524.97 1351.05 519.80 C 1348.99 485.56 1333.84 452.49 1310.55 427.45 C 1287.24 403.38 1256.08 386.80 1222.72 382.43 C 1214.17 379.76 1204.79 383.16 1196.54 379.47 C 1194.73 377.66 1193.66 375.34 1192.77 373.00 Z" />
<path fill="#000000" opacity="1.00" d=" M 1193.07 435.26 C 1193.66 430.51 1198.26 427.22 1202.95 427.67 C 1235.62 428.45 1267.62 444.70 1286.78 471.27 C 1299.87 487.57 1306.41 508.43 1308.32 528.97 C 1308.83 533.91 1308.23 540.04 1303.08 542.19 C 1297.96 544.42 1292.43 539.20 1292.69 533.99 C 1292.47 506.04 1278.84 478.38 1256.24 461.79 C 1240.53 449.69 1220.70 443.56 1200.99 443.32 C 1196.65 443.52 1193.80 439.07 1193.07 435.26 Z" />
<path fill="#000000" opacity="1.00" d=" M 1193.01 490.78 C 1193.86 487.38 1196.03 483.71 1200.01 483.72 C 1225.50 481.46 1248.90 502.99 1252.53 527.64 C 1253.63 532.50 1254.09 539.32 1248.74 541.84 C 1244.75 544.44 1240.02 541.47 1237.98 537.84 C 1237.86 527.68 1234.52 517.79 1227.95 510.00 C 1220.37 502.56 1209.63 497.94 1198.82 498.37 C 1197.54 497.56 1196.27 496.75 1195.01 495.95 C 1194.36 494.21 1193.71 492.49 1193.01 490.78 Z" />
<path fill="#000000" opacity="1.00" d=" M 42.70 527.96 C 69.81 527.40 96.94 527.90 124.06 527.70 C 126.34 527.43 129.04 528.16 129.09 530.89 C 143.19 583.17 157.66 635.38 171.35 687.75 C 171.94 687.73 173.11 687.68 173.70 687.66 C 189.74 634.35 205.29 580.92 221.80 527.77 C 239.89 527.65 257.98 527.78 276.06 527.70 C 277.61 527.82 280.08 527.45 280.60 529.42 C 295.50 579.11 310.45 628.86 325.37 678.53 C 326.13 681.57 327.29 684.55 327.34 687.73 C 328.01 687.79 329.35 687.89 330.02 687.94 C 343.24 638.58 356.70 589.26 369.94 539.91 C 370.96 535.79 371.40 531.42 373.73 527.75 C 427.86 527.74 481.99 527.54 536.12 527.87 C 536.40 528.31 536.98 529.19 537.26 529.63 C 560.90 593.30 585.04 656.80 608.59 720.50 C 609.11 720.54 610.15 720.62 610.67 720.66 C 633.96 658.19 657.01 595.62 680.29 533.18 C 680.74 531.21 681.82 529.52 682.79 527.79 C 805.19 527.63 927.60 527.76 1050.00 527.72 C 1055.99 527.80 1062.00 527.48 1067.99 528.00 C 1068.69 594.31 1068.02 660.65 1068.33 726.97 C 1069.80 738.34 1070.20 750.50 1076.47 760.50 C 1083.05 770.91 1097.15 771.18 1107.91 768.85 C 1118.20 766.09 1122.82 755.20 1124.50 745.60 C 1126.69 737.49 1125.87 729.02 1127.59 720.85 C 1127.85 656.54 1127.39 592.21 1127.82 527.90 C 1153.22 527.46 1178.63 527.89 1204.04 527.68 C 1206.19 527.56 1208.38 527.82 1210.34 528.82 C 1210.29 600.23 1210.44 671.64 1210.26 743.05 C 1208.70 750.02 1210.02 757.20 1208.42 764.17 C 1207.12 778.23 1202.18 791.86 1194.90 803.92 C 1174.83 835.74 1135.65 851.47 1099.01 850.33 C 1081.18 850.95 1063.14 848.30 1046.67 841.32 C 1018.02 829.31 993.84 803.46 988.45 772.34 C 984.81 759.87 986.57 746.74 984.81 734.05 C 984.87 689.42 984.82 644.79 984.83 600.15 C 964.95 600.14 945.07 600.10 925.19 600.18 C 925.46 681.51 925.44 762.85 925.19 844.18 C 897.75 844.45 870.30 844.44 842.86 844.19 C 842.51 762.85 842.61 681.49 842.81 600.15 C 822.92 600.14 803.04 600.12 783.15 600.16 C 783.07 680.12 783.11 760.08 783.13 840.04 C 783.16 841.53 782.67 842.95 782.16 844.35 C 755.04 844.22 727.92 844.57 700.81 844.18 C 700.15 791.48 701.28 738.81 701.72 686.13 C 701.12 686.19 699.91 686.29 699.31 686.34 C 680.64 737.52 661.44 788.51 642.60 839.63 C 642.06 841.31 641.16 842.84 640.13 844.27 C 619.71 844.42 599.28 844.33 578.85 844.32 C 558.72 791.51 539.42 738.41 519.49 685.54 C 518.95 685.44 517.87 685.25 517.32 685.15 C 519.37 709.97 517.27 735.07 519.03 759.95 C 519.01 788.03 519.68 816.12 519.18 844.20 C 491.76 844.42 464.33 844.48 436.91 844.17 C 436.53 764.83 436.86 685.48 436.75 606.14 C 436.16 606.17 434.99 606.24 434.40 606.27 C 411.47 683.79 386.41 760.73 363.00 838.15 C 362.35 840.35 361.43 842.45 360.27 844.43 C 338.50 844.15 316.73 844.56 294.96 844.21 C 280.37 792.97 265.89 741.77 251.39 690.54 C 251.06 690.43 250.38 690.23 250.04 690.12 C 235.98 738.76 222.26 787.50 208.18 836.13 C 207.41 838.96 206.71 841.85 205.26 844.44 C 183.79 844.17 162.31 844.49 140.84 844.28 C 138.94 840.53 137.65 836.53 136.63 832.47 C 106.91 736.17 77.00 639.94 47.28 543.63 C 45.24 538.57 44.03 533.24 42.70 527.96 Z" />
<path fill="#000000" opacity="1.00" d=" M 684.09 901.93 C 684.15 877.50 709.64 857.51 733.35 861.76 C 741.60 863.84 750.37 866.20 756.45 872.58 C 764.09 880.51 770.56 890.66 770.66 902.03 C 770.69 927.03 770.61 952.03 770.70 977.03 C 770.01 1002.42 744.14 1024.00 718.99 1017.99 C 711.08 1015.92 702.85 1012.93 697.40 1006.55 C 695.52 1001.90 700.42 999.00 703.17 996.16 C 704.37 994.64 706.65 994.66 707.96 996.04 C 713.01 1000.32 719.48 1002.58 725.99 1003.36 C 736.21 1003.85 745.99 997.85 751.54 989.48 C 755.33 983.61 754.92 976.29 754.78 969.61 C 739.75 980.25 718.11 982.50 702.77 971.21 C 692.64 963.62 684.39 952.09 684.13 939.04 C 683.90 926.67 683.95 914.29 684.09 901.93 M 721.33 877.34 C 713.17 879.08 705.56 884.46 702.21 892.26 C 696.96 904.48 700.10 918.17 699.27 931.06 C 698.29 943.70 704.92 957.41 717.51 961.55 C 734.06 968.91 756.18 954.40 754.34 935.94 C 755.33 923.38 754.88 910.74 754.03 898.21 C 751.69 883.56 735.39 873.99 721.33 877.34 Z" />
<path fill="#000000" opacity="1.00" d=" M 795.75 861.82 C 799.97 860.92 804.76 860.89 809.00 862.05 C 809.55 864.64 809.82 867.29 809.70 869.96 C 809.57 918.82 809.79 967.70 809.59 1016.56 C 807.75 1020.10 803.15 1018.71 799.94 1019.00 C 797.30 1019.28 793.79 1018.23 794.08 1014.96 C 793.82 970.55 794.21 926.13 793.88 881.73 C 787.44 883.16 779.32 888.72 773.40 883.62 C 773.67 879.14 771.63 873.20 775.88 870.09 C 783.29 869.76 790.27 866.75 795.75 861.82 Z" />
<path fill="#000000" opacity="1.00" d=" M 845.17 899.92 C 846.74 876.08 871.88 857.24 895.20 861.89 C 905.03 864.08 915.25 868.19 921.25 876.70 C 926.64 883.69 931.64 891.88 931.36 901.02 C 931.33 925.35 931.33 949.67 931.36 974.00 C 932.00 985.54 927.25 997.09 919.61 1005.63 C 909.34 1015.57 894.20 1021.36 879.98 1017.98 C 871.82 1015.88 863.47 1012.56 857.84 1006.03 C 857.85 1000.14 866.16 991.03 871.41 997.69 C 883.91 1007.50 902.97 1003.63 911.75 990.72 C 916.45 984.76 915.96 976.77 915.76 969.64 C 906.57 975.25 896.18 979.80 885.13 978.64 C 863.52 977.74 844.55 957.70 845.04 936.05 C 845.03 924.00 844.84 911.95 845.17 899.92 M 882.34 877.32 C 869.84 879.69 860.57 891.36 860.30 903.94 C 860.34 915.79 859.83 927.70 860.64 939.52 C 862.58 953.33 875.64 963.96 889.46 963.49 C 900.97 962.55 912.35 954.36 914.98 942.79 C 916.29 931.56 915.77 920.22 915.84 908.94 C 915.39 903.72 915.89 898.21 913.65 893.33 C 909.00 881.32 894.69 874.53 882.34 877.32 Z" />
<path fill="#000000" opacity="1.00" d=" M 967.87 905.96 C 968.43 884.39 987.36 865.15 1008.99 864.63 C 1020.34 863.88 1032.23 867.63 1040.27 875.84 C 1044.21 880.90 1037.06 884.98 1033.78 887.97 C 1029.21 888.15 1026.19 883.13 1021.64 882.34 C 1006.83 875.15 987.84 885.84 983.85 901.11 C 983.43 912.41 983.61 923.77 983.80 935.09 C 993.04 935.67 1002.33 934.98 1011.57 935.44 C 1014.85 936.30 1013.85 940.46 1014.12 942.99 C 1013.86 945.55 1014.96 949.73 1011.58 950.60 C 1002.15 951.38 992.64 950.44 983.19 951.10 C 983.35 974.42 983.58 997.77 983.06 1021.08 C 978.24 1021.78 972.04 1023.28 967.93 1020.21 C 967.82 982.13 967.94 944.05 967.87 905.96 Z" />
<path fill="#000000" opacity="1.00" d=" M 1050.24 865.19 C 1055.03 864.93 1061.44 862.86 1065.09 866.86 C 1064.99 869.24 1065.05 871.63 1065.19 874.03 C 1083.80 858.56 1114.42 862.53 1128.15 882.59 C 1132.55 878.87 1135.86 873.95 1140.73 870.76 C 1155.27 862.80 1174.45 861.95 1188.40 871.67 C 1197.48 878.65 1204.67 888.71 1206.82 900.07 C 1207.25 915.38 1206.87 930.72 1207.00 946.04 C 1207.25 953.55 1196.82 950.84 1192.14 949.94 C 1191.09 935.99 1191.92 921.95 1191.69 907.97 C 1192.79 899.99 1187.22 893.30 1182.61 887.43 C 1173.28 877.91 1157.10 878.04 1146.67 885.67 C 1140.49 891.38 1135.73 899.32 1135.80 907.95 C 1135.87 920.64 1135.80 933.34 1135.86 946.03 C 1136.28 953.63 1125.77 950.83 1121.11 949.89 C 1120.13 935.95 1120.90 921.94 1120.68 907.97 C 1121.77 899.30 1115.74 891.82 1109.95 886.07 C 1100.30 877.47 1085.08 878.73 1075.15 886.14 C 1069.39 891.85 1064.49 899.55 1064.97 907.96 C 1065.05 921.68 1064.94 935.40 1065.03 949.12 C 1060.73 952.09 1054.80 951.13 1050.00 950.01 C 1049.66 921.77 1049.16 893.39 1050.24 865.19 Z" />
<path fill="#000000" opacity="1.00" d=" M 823.39 987.42 C 834.15 983.81 846.31 996.29 841.82 1006.92 C 839.33 1012.58 833.50 1017.42 827.05 1016.96 C 819.84 1016.68 813.66 1010.43 812.55 1003.47 C 811.63 996.37 816.73 989.53 823.39 987.42 Z" />
</g>
</svg>
